/* XPM */
static char *d9c4445805e6400ced782adc9bf1a4baPbBo3uWLtt5aGkK2[] = {
/* columns rows colors chars-per-pixel */
"64 64 3 1 ",
"  c black",
". c #499E3C",
"X c #57BA48",
/* pixels */
"                                                                ",
" .............................................................. ",
" .............................................................. ",
" .............X..............XX.....XX......................... ",
" .........X.................................................... ",
" .............................................................. ",
" ....X......................................................... ",
" ....................X.......................X.XX.............. ",
" ........................X.....X............................... ",
" ..........X...........................................X....... ",
" ..................................................X........... ",
" ...................................XXX........................ ",
" ...........XX................................................. ",
" .......X....................................X................. ",
" .........................X.........................X.......... ",
" ....................................................XX........ ",
" .......X......................X.......................X....... ",
" .......................................................X...... ",
" ........................................................X..... ",
" .........................................X...............XX... ",
" ................X............................................. ",
" .......................X...................................... ",
" .....X........................................X............... ",
" .....X.X...................................................... ",
" ......X.................................................X..... ",
" ...............................X......................X.X..... ",
" ............................X................................. ",
" .............................................................. ",
" .............................................................. ",
" .................X............................................ ",
" .............................................................. ",
" ..................................X..........X................ ",
" ...........X.................................................. ",
" ........................X.............................X....... ",
" ......X.................X...................X..........X...... ",
" .............................................................. ",
" ...X.......................................................... ",
" ................................X............................. ",
" .............................................................. ",
" ..........................................................X... ",
" ..................X.......................................X... ",
" .............................................................. ",
" .............X............................XXXXXX.............. ",
" .......................................XX..................... ",
" ...................................................X.......... ",
" ....................X......................................... ",
" ...X.................X........................................ ",
" ...X..................X....................................... ",
" .............................................................. ",
" .................XX........................................... ",
" ................X..........X.............................X.... ",
" ..........X..............................................X.... ",
" ..............................................X.....X......... ",
" ......................................X....................... ",
" ..X....................................X...................... ",
" ..X.......X................................................... ",
" ..........X....................................X.............. ",
" ...............................................X.............. ",
" .............................................................. ",
" .............................................................. ",
" ......................X..........X............................ ",
" .............................................................. ",
" .............................................................. ",
"                                                                "
};
