/* XPM */
static char *_6ecc4d6ba8e44ff87ffb2042c893ddfxXvmojyKoT9KIMzV[] = {
/* columns rows colors chars-per-pixel */
"64 64 4 1 ",
"  c #0F7D17",
". c #26A32E",
"X c #1934E3",
"o c #0077FF",
/* pixels */
"XXXXXXXXXXXXXXXXXXXXXXXXXXXXXXXXXXXXXXXXXXXXXXXXXXXXXXXXXXXXXXXX",
"XXXXXXXXXXXXXXXXXXXXXXXXXXXXXXXXXXXXXXXXXXXXXXXXXXXXXXXXXXXXXXXX",
"XXXXXXXXXXXXXXXXXXXXXXXXXXXXXXXXXXXXXXXXXXXXXXXXXXXXXXXXXXXXXXXX",
"XXXXXXXXXXXXXXXXXXXXXXXXXXXXXXXXXXXXXXXXXXXXXXXXXXXXXXXXXXXXXXXX",
"XXXooooooooooooooooooXXXXXXXXXXXXXXXXXXXXXXXXXXXXXXXX XXXXXXXXXX",
"XXXooooooooo ooooooooXXXXXXXXXXXXXXXXXXXXXXXXXXXXX    XXXXXXXXXX",
"XXXoooooooo    ooooooXXXXXXXXXXXXXXXXXXXXXXXXXXXX  ..  XXXXXXXXX",
"XXXoooooooo .    ooooXXXXXXXXXXXXXXXXXXXXXXXXXX    ..  XXXXXXXXX",
"XXXXXXXXXXX ..    XXXXXXXXXXXXXXXXXXXXXXXXXXXX    .  .  XXXXXXXX",
"XXXXXXXXXX  . .    XXXXXXXXXXXXXXXXXXXXXXXXXX    .   .. XXXXXXXX",
"XXXXXXXXXX ..  .    ooXXXXXXXXXXXXXXXXXXXXXX    .     . XXXXXXXX",
"XXXXXXXXXX .    .     XXXXXXXXXXXXXXXXXXXX     .      . XXXXXXXX",
"XXXXXXXXXX .     .     XXXXXXXXXXXooooooo     .       . XXXXXXXX",
"XXXXXXXXXX .      .      XXXXXXXXXoooooo     .        . XXXXXXXX",
"XXXXXXXXX  .       .     XXXXXXXXXooooo     .        .. XXXXXXXX",
"XXXXXXXXX ..        .      XXXXXXXoooo     .         .  XXXXXXXX",
"XXXXXXXXX .          .      XXXXXXXXX     .          . XXXXXXXXX",
"XXXXXXXXX .           .     XXXXXXXX     .           . XXXXXXXXX",
"XXXXXXXX  .            .     XXXXXXX    .            . XXXXXXXXX",
"XXXXXXXX ..             .    XXXXXX    .             . XXXXXXXXX",
"XXXXXXXX .               .    XXXX    .              . XXXXXXXXX",
"XXXXXXXX .                .   oooo   .              .. XXXXXXXXX",
"XXXXXXXX .                 .   oo   .               .  XXXXXXXXX",
"XXXXXXXX .                  .   o  .                . XXXXXXXXXX",
"XXXXXXXX .                   .    .                 . XXXXXXXXXX",
"XXXXXXXX .                    .  .                  . XXXXXXXXXX",
"XXXXXXXX .                     ..                   . XXXXXXXXXX",
"XXXXXXXX .                                          . XXXXXXXXXX",
"XXXXXXXX .                                         .  XXXXXXXXXX",
"XXXXXXXX .                                         . XXXXXXXXXXX",
"XXXXXXXX .                                        .  XXXXXXXXXXX",
"ooXXXXXX .                                        .  XXXXXXXXXXX",
"oooooooo .                                        . XXXXXooooooo",
"oooooooo .                                       .  XXXXXooooooo",
"oooooooo .                                       .  XXXXXooooooo",
"oooooooo .                                      .  XXXXXXooooooo",
"XXXXXXXX .                                      .  XXXXXXXXXoooo",
"XXXXXXXX ..                                     .  XXXXXXXXXXXXX",
"XXXXXXXX  .                                    .   XXXXXXXXXXXXX",
"XXXXooooo .                                    .   XXXXXXXXXXXXX",
"XXXXooooo .                                   .   XXXXXXXXXXXXXX",
"XXXXooooo ..                                  .   XXXXXXXXXXXXXX",
"XXXXooooo  .                                  .   XXXXXXXXXXXXXX",
"XXXXXXXXXX .                                 .    XXXXXXXXXXXXXX",
"XXXXXXXXXX .                                 .   XXXXXXXXXXXXXXX",
"XXXXXXXXXX  .                                .   XXXXXXXXXXXXXXX",
"XXXXXXXXXXX  ..                             .    XXXXXXXXXXXXXXX",
"XXXXXXXXXXXX   .                            .   XXXXXXXXXXXXXXXX",
"XXXXXXXXXXXX    .                          .    XXXXXXXXXXXXXXXX",
"XXXXXXXXXXXXX    ..                        .   XXXXXXXXXXXXXXXXX",
"XXXXXXXXXXXXXX     .                       .   XXXXXXXXXXXXXXXXX",
"XXXXXXXXXXXXXXX     ..                    .   XXXXXXXXXXXXXXXXXX",
"XXXXXXXXXXXXXXXX      .                   .   XXXXXXXXXXXXXXXXXX",
"XXXXXXXXXXXXXXXXXX     .                 .   XXXXXXXXXXXXXXXXXXX",
"XXXXXXXXXXXXXXXXXXXX    ..               .   oooooooooooooXXXXXX",
"XXXXXXXXXXXXXXXXXXXXXX    ..........    ..  ooooooooooooooXXXXXX",
"XXXXXXXXXXXXXXXXXXXXXXXXX          .....   XooooooooooooooXXXXXX",
"XXXXXXXXXXXXXXXXXXXXXXXXXXX               XXooooooooooooooXXXXXX",
"XXXXXXXXXXXXXXXXXXXXXXXXXXXXXXXXXXX      XXXXXXXXXXXXXXXXXXXXXXX",
"XXXXXXXXXXXXXXXXXXXXXXXXXXXXXXXXXXXXXXXXXXXXXXXXXXXXXXXXXXXXXXXX",
"XXXXXXXXXXXXXXXXXXXXXXXXXXXXXXXXXXXXXXXXXXXXXXXXXXXXXXXXXXXXXXXX",
"XXXXXXXXXXXXXXXXXXXXXXXXXXXXXXXXXXXXXXXXXXXXXXXXXXXXXXXXXXXXXXXX",
"XXXXXXXXXXXXXXXXXXXXXXXXXXXXXXXXXXXXXXXXXXXXXXXXXXXXXXXXXXXXXXXX",
"XXXXXXXXXXXXXXXXXXXXXXXXXXXXXXXXXXXXXXXXXXXXXXXXXXXXXXXXXXXXXXXX"
};
