/* XPM */
static char *ee5b689d2aed425297bcef2a4b678176KM74Nd22IGrHVPzt[] = {
/* columns rows colors chars-per-pixel */
"64 64 6 1 ",
"  c None",
". c black",
"X c #0D4713",
"o c #2C7834",
"O c #56B35F",
"+ c #6BE377",
/* pixels */
"                                                                ",
"                                                                ",
"                                                                ",
"                                                                ",
"                                                                ",
"                                                                ",
"                                                                ",
"                                                                ",
"                            .........                           ",
"                        ....+++++OOOO....                       ",
"                      ..++++++++++OOOOOOO..                     ",
"                     .++++++++++++OOOOOOOOO.                    ",
"                   ..++++++++++++++OOOOOOOOO..                  ",
"                  .++++++++++++++++OOOOOOOOOOO.                 ",
"                 .++++++++++++++++++OOOOOOOOOOo.                ",
"                .+++++++++++++++++++OOOOOOOOOOoo.               ",
"               .++++++++++++++++++++OOOOOOOOOOOoo.              ",
"              .+++++++++++++++++++++OOOOOOOOOOOooo.             ",
"             .++++++++++++++++++++++OOOOOOOOOOOoooo.            ",
"             .++++++++++++++++++++++OOOOOOOOOOOoooo.            ",
"            .+++++++++++++++++++++++OOOOOOOOOOOooooo.           ",
"            .+++++++++++++++++++++++OOOOOOOOOOOooooo.           ",
"           .++++++++++++++++++++++++OOOOOOOOOOooooooo.          ",
"           .++++++++++++++++++++++++OOOOOOOOOOooooooo.          ",
"          .+++++++++++++++++++++++++OOOOOOOOOOoooooooo.         ",
"          .+++++++++++++++++++++++++OOOOOOOOOOoooooooo.         ",
"          .+++++++++++++++++++++++++OOOOOOOOOOoooooooo.         ",
"          .+++++++++++++++++++++++++OOOOOOOOOOoooooooo.         ",
"         .+++++++++++++++++++++++++OOOOOOOOOOoooooooooX.        ",
"         .+++++++++++++++++++++++++OOOOOOOOOOoooooooooX.        ",
"         .+++++++++++++++++++++++++OOOOOOOOOOoooooooooX.        ",
"         .+++++++++++++++++++++++++OOOOOOOOOoooooooooXX.        ",
"         .+++++++++++++++++++++++++OOOOOOOOOoooooooooXX.        ",
"         .+++++++++++++++++++++++++OOOOOOOOOooooooooXXX.        ",
"         .+++++++++++++++++++++++++OOOOOOOOOooooooooXXX.        ",
"         .++++++++++++++++++++++++OOOOOOOOOooooooooXXXX.        ",
"         .++++++++++++++++++++++++OOOOOOOOOoooooooXXXXX.        ",
"          .+++++++++++++++++++++++OOOOOOOOoooooooXXXXX.         ",
"          .+++++++++++++++++++++++OOOOOOOOoooooooXXXXX.         ",
"          .++++++++++++++++++++++OOOOOOOOoooooooXXXXXX.         ",
"          .++++++++++++++++++++++OOOOOOOOooooooXXXXXXX.         ",
"           .++++++++++++++++++++OOOOOOOOoooooooXXXXXX.          ",
"           .+++++++++++++++++++OOOOOOOOOooooooXXXXXXX.          ",
"            .+++++++++++++++++OOOOOOOOOooooooXXXXXXX.           ",
"            .++++++++++++++++OOOOOOOOOooooooXXXXXXXX.           ",
"             .+++++++++++++++OOOOOOOOOooooooXXXXXXX.            ",
"             .+++++++++++++++OOOOOOOOoooooXXXXXXXXX.            ",
"              .+++++++++++++OOOOOOOOooooooXXXXXXXX.             ",
"               .+++++++++++OOOOOOOooooooXXXXXXXXX.              ",
"                .++++++++++OOOOOOooooooXXXXXXXXX.               ",
"                 .+++++++OOOOOOOooooooXXXXXXXXX.                ",
"                  .+++++OOOOOOOooooooXXXXXXXXX.                 ",
"                   ..+++OOOOoooooooXXXXXXXXX..                  ",
"                     .OOOOooooooXXXXXXXXXXX.                    ",
"                      ..ooooooXXXXXXXXXXX..                     ",
"                        ....XXXXXXXXX....                       ",
"                            .........                           ",
"                                                                ",
"                                                                ",
"                                                                ",
"                                                                ",
"                                                                ",
"                                                                ",
"                                                                "
};
