/* XPM */
static char *_fe6c8efabb14a98ff8bcc5ae34f1306ZjS0kFaV9PBqMdUk[] = {
/* columns rows colors chars-per-pixel */
"64 64 155 2 ",
"   c #3F066C",
".  c #3E0475",
"X  c #3C0976",
"o  c #3D047B",
"O  c #3D0A7B",
"+  c #42046D",
"@  c #41086F",
"#  c #420575",
"$  c #440A75",
"%  c #480C77",
"&  c #43057C",
"*  c #49057D",
"=  c #450A7C",
"-  c #4A0C7D",
";  c #4C117D",
":  c #53147F",
">  c #3F0180",
",  c #3F0A80",
"<  c #440483",
"1  c #4A0584",
"2  c #450A83",
"3  c #4B0C84",
"4  c #460589",
"5  c #4B058B",
"6  c #470989",
"7  c #4C0B8B",
"8  c #510E85",
"9  c #51068C",
"0  c #520D8C",
"q  c #471183",
"w  c #4D1183",
"e  c #4D118C",
"r  c #521385",
"t  c #571986",
"y  c #53128B",
"u  c #59148E",
"i  c #521888",
"p  c #5C198F",
"a  c #470792",
"s  c #4D0592",
"d  c #4E0B92",
"f  c #4E0698",
"g  c #4E0C9A",
"h  c #520695",
"j  c #580696",
"k  c #530C94",
"l  c #590D94",
"z  c #54069A",
"x  c #59079C",
"c  c #550B9B",
"v  c #5B0C9C",
"b  c #4F1192",
"n  c #541293",
"m  c #591395",
"M  c #5A1993",
"N  c #561299",
"B  c #5C139B",
"V  c #571998",
"C  c #5D199B",
"Z  c #600D9E",
"A  c #601A97",
"S  c #61159C",
"D  c #621B9D",
"F  c #67219E",
"G  c #68229F",
"H  c #65289F",
"J  c #5605A0",
"K  c #5C07A1",
"L  c #560BA1",
"P  c #5C0CA2",
"I  c #5E0EA8",
"U  c #5D12A3",
"Y  c #5E19A1",
"T  c #5D11AA",
"R  c #5F1AAB",
"E  c #620DA3",
"W  c #630EA9",
"Q  c #680FAA",
"!  c #6313A4",
"~  c #6916A6",
"^  c #641AA4",
"/  c #6A1CA5",
"(  c #6414AA",
")  c #6B15AB",
"_  c #651BAA",
"`  c #6B1AAC",
"'  c #711CAE",
"]  c #6615B0",
"[  c #6C16B2",
"{  c #651CB1",
"}  c #6D1BB2",
"|  c #6E1AB9",
" . c #7217B4",
".. c #721DB3",
"X. c #791FB2",
"o. c #741DB9",
"O. c #7A1FB9",
"+. c #6622A5",
"@. c #6B22A5",
"#. c #6B29A5",
"$. c #6721AB",
"%. c #6D21AC",
"&. c #7225AD",
"*. c #7329AD",
"=. c #7432AE",
"-. c #6722B0",
";. c #6E22B3",
":. c #7422B4",
">. c #7925B4",
",. c #762EB3",
"<. c #7B2BB6",
"1. c #7523BA",
"2. c #7B25BC",
"3. c #7629BB",
"4. c #7D2BBC",
"5. c #7631B0",
"6. c #7B31B6",
"7. c #7D31BB",
"8. c #7521C1",
"9. c #7C26C3",
"0. c #7D2AC3",
"q. c #812CBE",
"w. c #8132BD",
"e. c #8338BD",
"r. c #8225C2",
"t. c #832CC2",
"y. c #8A2FC7",
"u. c #832DCA",
"i. c #892BC9",
"p. c #8532C4",
"a. c #8934C6",
"s. c #8738C5",
"d. c #8A3BC6",
"f. c #8633CC",
"g. c #8B35CA",
"h. c #8739CA",
"j. c #8D3ACB",
"k. c #9035CD",
"l. c #913DCD",
"z. c #8A35D1",
"x. c #8C39D1",
"c. c #933CD2",
"v. c #983FD7",
"b. c #973ED8",
"n. c #8D42CC",
"m. c #9041CE",
"M. c #9443D3",
"N. c #9A45D5",
"B. c #9349D4",
"V. c #9A46D9",
"C. c #9D49DB",
"Z. c #A14AD7",
"A. c #A24DDB",
"S. c #A44FE0",
"D. c #A851E0",
/* pixels */
"1 0 5 9 ~ ~ S ) ` ) ) ( ! ( E E ! E ! P h 5 5 6 b g b n Y ^ Y ! l l 0 0 7 3 7 5 U x P Q o.9.0.3.L g g b d e 8 8 - - 3 7 7 g g g ",
"5 0 1 9 S ~ E ! ) ) ) ) E E ! ! E ! ! B s 4 5 6 b b d d C ^ S ! l l m 0 3 2 7 7 B v Z Q ..9.8.;.L g k n 0 8 3 ; - - - 7 0 d N g ",
"9 9 1 h ! ` ~ ) )  .) ) E x x E E E ! U 5 4 5 4 e n b n ^ ^ ! ^ 0 m y e q 2 - 3 m v P ) 1.0.3.6.N N N b 0 7 3 3 8 3 1 7 b g g N ",
"9 9 9 j Z ~ E E ` ` ) ) ) ) E E ( U ! B 5 < < 2 e e 7 d V ^ U ^ k y y w = = 2 2 n N c U _ ;.;.-.d d b 7 8 8 r 8 1 3 7 9 d g c g ",
"d.d.d.d.w.q.t.t.) Q Q  .1.9.4.2._ _ _ Y 5 < < o & 2 < 1 k B c v k y e q = O O q e d a h g g d 5 7 7 3 e 3 e 3 e 7 7 5 0 k c c g ",
"m.m.B.l.q.1.2.r.) Q Q ` 2.a.p.4.$._ $.C 4 o # # & = & < k v c c d e e q O O O , 6 7 5 5 5 a 4 < 2 2 - 2 3 3 y 7 7 7 s s c c z z ",
"l.j.M.c.q.2.i.r. .Q Q [ 1.t.0.1._ $.$.C < . . . = & < 4 c N L L n n b q , , O 2 5 5 s s s s s 5 2 - - 2 w 3 e y 7 5 h k c z z z ",
"M.j.c.l.2.2.t.O.) Q ) [ >.4.4.4.R +.+.V * . . # = * & 4 c c L L c k n 7 2 , , 2 7 s z s s s a 4 w ; ; w 3 e 7 7 7 k s h z z c J ",
":.>.1.:. .) ) ..c.b.c.j.[ ~ ~ ^ 5 6 5 2 < . # & 2 8 3 k _ { { } } ` -.+.n 7 b d Y c P ( ! ( ( C 8 % 3 - & # < < 7 k k c ( } ` ..",
":.:.1...) ) ) ) c.v.c.j.` ! U ^ 4 3 6 2 o o o & 7 0 5 k %.} [ ) 1.| :._ N k N k U P W ( ] ( _ ^ 9 - 8 r * = 2 & 7 k d k _ [ { } ",
">.:.>.:...) ) [ c.V.V.c.` ^ S / 2 2 2 & & & o & 7 9 5 j ` ;.)  .o.o.:.` N k k c P W W W ( W ! ! 8 7 3 3 # & * o e y k v _ ;...| ",
";.;.:...` ) ` ` g.j.g.s.^ S C D - 2 = - & 1 < 1 l l v U ` [ '  .o. ...{ N j B v E K W K ..} } _ k 9 9 7 * & = # 3 r 7 k _ ` ` [ ",
"! ! ! ^ ) ! ) ~ ..&.` ' 0 l 9 e - = - 2 7 7 d k :.3.3.1. .) )  . . ...~ N k l k E E Q Q j.j.x.h.S v m m 1 3 - % # * & 1 N ! P I ",
"v P P ! ! ( ! ~ ! S C D 9 y 7 - - % - 2 8 k c c 0.0.f.0.' Q ) )  . ..._ k k k k ! v E ! M.M.B.m.! P U l 8 - r - # # & 1 v U P I ",
"U v U ! ^ ~ ~ ^ ~ ^ D @.0 u 8 8 % % % 3 8 c L L 9.9.u.9.) )  .)  . .` _ l d k k B v Z x M.n.n.h.( P P l 1 - ; $ $ $ & 1 B U I I ",
"m B m C ! ! ^ ^ ^ / D ^ 8 8 3 3 % % - 5 5 c J L 0.9.u.t.' ~ / S [ ` %./ M 0 n y m B S S B.x.n.B.( W E v 9 8 - - # $ # < M B P P ",
"8 r 8 0 C C m m u y r 8 : * - - u l B j 3.8.8.8.| | [ ~ A u u p m Y m N 0 8 8 y 8 8 0 N Y _ -.`  . .[ ` ! m V y 3 & - 2 3 3 8 7 ",
"; ; - 3 u C y M 8 r ; - % % - * S S ! P 0.9.8.8.] _ ^ S u r : r M m m n 8 3 3 3 8 3 7 0 n C N c |  ...1._ ! _ +.n e 3 3 = = % # ",
"; r 3 7 V V m V 7 3 - ; % % * 3 l v v P 9.0.0.9.) ( S S u t t t n n y y 3 3 - - r 3 3 y M N C B :.o.>...( ! ! D 7 1 1 3 * % $ # ",
"- ; - 3 M V n M q w 2 - - 8 3 1 B E ( ( 1.3.0.8.~ ~ D A M t t t r r r r w 3 3 - 3 - q w y M u m ` ....` ` ( ! S 5 5 0 7 1 % 2 % ",
"= * & < b b b b 7 q 3 q e y b k 3.0.0.4.} ` _ ~ S m A u r i : i w r r r 3 r r 3 - - - * * % % * S ^ S ~ 1.2.1.1.) ! D C 3 - 2 - ",
"& & & < d b b b 3 2 2 7 n V V Y x.x.j.f.` ! B S m m y r r i w : ; ; - ; r i y y 3 - - # % + + + 8 l k x 2.t.9.r.X.` &./ 0 3 - % ",
"* * < < n n b n 5 1 1 7 n V U U z.z.f.f.~ S S A u r r r i i i w ; : : 3 y y y y 3 7 3 % % + + % 3 m 9 l 2.t.O.r...) ` ^ 8 1 2 ; ",
"* 1 < 4 k N k k 7 7 5 0 k U U P z.z.f.g.~ D A A t r r i r i i i r ; 8 3 e n k 7 5 6 1 * * + + + w V 0 B 4.t.2.i.O...X.` k 2 2 - ",
"~ S / ~ B B S m m 0 l l :.>.1.o.| 1..._ m 0 8 r - % - - w w w w r r 0 y k n k k g k N 8 * # + * w e 8 0 Z Q ~ Q t.2.t.3.C m m e ",
"' / ' ' ! ! ! S l k l l 2.2.0.9.] { ~ ! l 9 8 8 - - % ; w y e e 0 0 0 n v c L L c L N k 5 * * # = & 1 1 l Z Z Z r.q.p.<.S l V m ",
"X.X.>.' ) ! ^ S A l S S q.t.i.u.[ _ _ ! N 8 8 r - % - - r y y y 0 k k k c L L L L P c c 5 1 & * = & * 7 8 l Z Z y.a.d.4.^ B Y B ",
"X.' ' ' ! B ! B l 0 l l 1.9.9.9.( _ ^ C n 0 3 q 2 - 3 3 3 e 7 0 l l v c c L L L L I U c h 5 9 1 2 - = 3 0 u m m <.q.p.3.) U U U ",
") ) _ ( v c k 0 1 * 1 5 ~ E ] W v N N k 7 3 2 3 r 3 3 7 7 3 8 9 B ! S Z c x J P ` _ [ _ ! P v B 2 = # & q w e 8 A ^ ^ ^ ! ! ( ! ",
"W E T T f a a 6 1 * < > v x J J s 5 7 7 5 3 6 q e y y e 3 9 8 1 ! ! ) ! P v J v [ } } } { ` ` ^ = o . = = = = 2 y m k v ^ ( W W ",
"] I T T f a d 4 & & < < N L L L 5 6 6 6 6 7 6 e e e n 7 7 1 7 9 ~ ~ ~ ! Z Z x E ) ` } [ [ ) ) _ 3 $ $ = ; ; = ; u C m N ( W I Q ",
"( T T T g a d 6 & < < < N v P L d 7 7 3 6 6 6 2 7 b 7 y 8 7 8 1 S ~ ~ E Z v Z Z ` ` ` ~ ) ) ) ! < = X X $ O ; = w M B P ( W I [ ",
"[ { { ( k d 7 7 3 3 8 1 S B ! U n 6 7 7 6 7 5 5 1 6 2 & & . . & ^ ` ) ) >.q.>.>.a.p.j.p.S x ! m 3 - - = X X X X V C Y ! ( ( ( W ",
"| [ [ _ c 7 7 3 7 y k 5 ^ v E ! n b n n 5 5 7 4 5 6 2 2 o . . & ~ ' ` ' q.t.q.q.l.a.m.d.! l ! B 1 3 = = = = $ 2 V D ! ( ( T ( T ",
"| [ } _ c d d 7 7 7 k 5 ! v E P g 5 k d 6 6 7 7 2 6 2 & o . o & / ` ` ' q.a.y.y.M.v.C.j.! k v l 1 1 2 - # O o < ^ _ ( ) ( ( ( ] ",
"| { _ ( c d k 7 7 d k 5 ! U W ! c k m N 5 5 7 7 < < 2 2 & & O 2 D ) ~ ` q.q.q.q.l.l.c.a.) x B ! h 9 7 3 & o o < B ! ! ) ] ( ( ( ",
"I T T L k d 7 7 N n N k :.;.3.1.:.` &./ k 5 3 2 & > < O 2 2 2 6 v ! E ! X.1.>.>.X.X.2...` ~ ` ` v S B k 2 4 4 5 j x P J J P c c ",
"L L L N a d d 6 N n B B 4.0.u.0.2.1.3.%.l 7 7 q X O O < 2 6 7 5 k v z B ' ..'  .) Q ) ) ..} ....! ! Y N 7 2 6 5 k h z z z z z h ",
"c f g k d 5 7 3 n N m v <.4.q.y.O.O.2.' l 1 7 q o O O > 6 5 5 s c c z x ~ .. ...) ) ) ) [ ..[ ` E U B M 7 2 4 6 k z z z c d d d ",
"N k g n 7 7 0 7 y y m m <.4.q.q.2.O.q.' 0 1 3 4 O O O > 6 a a s c c c v } X.....)  .Q ) ....[ } Y Y Y N d 2 4 6 7 g z k d d 7 7 ",
"d d 7 7 7 8 7 8 8 8 8 y Z A S S r.r.O.q.' 5.#.H & & 2 2 a d s f T _ _ ( ` ) ) ..y.t.y.y.2.2.9.3.d a , , , O > > 4 < a 7 4 < 4 , ",
"5 0 0 8 0 8 y y 3 * 1 1 8 y 0 l q.r.q.t.&.6.5.=.r 7 2 6 d g s s ! { { ` ..[ ) ..b.c.v.c.t.t.t.0.a a , , o o O o a 4 5 5 < 2 , O ",
"5 5 5 1 8 8 3 3 * - * 3 8 0 u 0 2.r.t.t.<.w.,.6.1 1 < < 5 d s s ( } [ ~ ) ! E ~ y.g.j.g.q.2.q.>.q 2 , O X X o o 4 < < 4 a , q , ",
"9 5 5 7 0 0 8 8 - - * 3 8 y u l 2.2.1.2.w.w.<.>.h 5 9 k s a g s _ { _ (  .) ~  .c.l.b.l.w.q.w.q.2 , O X X X O < 6 1 s s 6 , e , ",
"c k k v B V C m * * < < 3 y e y ^ ^ ! ` q.a.a.w.>.>.:.%.N d d f U Q E ) 9.t.q.q.q.2.q.&.S j j 0 2 X X X O = q 2 +.$.;._ g 6 d 6 ",
"U P U U ^ / ^ D 5 < < = 3 q e 6 k v x U a.l.k.k.a.p.d.4.B a g s U I K Q t.x.k.a.>.>.q./ j 1 9 * # o . o = w q 7 7.0.p.9.U g d b ",
"T P L U _ _ ^ C 5 5 2 2 6 e q d N B x v j.k.k.k.i.r.a.3.c 5 k 5 ( W K ) t.z.y.y.' >.&.' l 9 9 * & . . . = 2 7 5 3.9.r.o.W z L N ",
"I P L L ( ~ ^ ^ 5 5 < 4 6 e e e b N m B l.l.k.l.y.q.g.4.v s c 9 P W E ) t.j.g.g.4.>.<.@.8 * * * & . . . 3 9 9 9 4.2.9.o.W J c c ",
"f z z P } >.:.>.~ _ / D 7 5 7 6 2 6 7 k / %.&.>.w.q.w.q.Q Z E Z E Q ! [ 9.0.0.0.! S m y t r ; r 1 9 0 9 / / ' ` q.t.p.9.P z z z ",
"c c z E 1.p.t.q.2.<.<.&.l 7 d e O < o & 7 y 0 k w.w.q.q.`  . . ...) ) [ 9.0.4.:.h k 1 7 3 ; % - l l v Z 4.4.w.q.a.a.j.4.U h z c ",
"s s 5 z >.a.t.q.q.q.w.&.k 1 3 6 < 2 & & y n 0 l w.<.w.q.' ) ` ) ) E ( ) 1.3.3.;.5 5 1 * - ; ; : l h j v q.p.p.q.t.f.j.4.v s s z ",
"c c s P 3.p.q.q.>.>.>.&.l 5 5 7 & 2 & * y y 0 m e.e.e.q.' ) ) ) ` ) _ %.3.4.4.,.5 1 1 3 3 w 3 r j j j x 2.2.4.4.a.d.d.4.B s h k ",
"g k k c _ ;.` ' q.q.w.>.@./ @.A 8 8 7 3 t y 0 u F D @./ B v Z E ! ! U B B S C m 1 1 1 - 3 8 - 9 ! ) ` ) 0.4.q.w.&.&.%.^ j 5 5 1 ",
"2 4 4 4 j l z v q.>.w.w.<.<.<.*.u m y y M u u M 8 8 l k 1 5 h s s g s 5 1 < & & * * # 1 3 0 0 0 :.1.2.:.p.4.w.w.l 9 9 9 < < < o ",
"6 b 7 d N c c Z 4.>.q.q.>.q.<.*.1 8 8 3 y y r u p u m M 9 s h s c g k 7 7 3 - - * * - 3 9 0 k c ....1...a.4.7.7.l 0 n y 1 3 7 * ",
"2 7 4 6 k N x v q.q.w.w.>.&.>.&.l u 9 8 u y 8 u y 8 n n 5 9 k k d g n 0 3 < # # % # & 1 1 0 k j 1...o...s.p.e.e.m l y 0 * o & & ",
"O 2 2 4 7 d z h ..:.' ` l.l.e.d./ D @.F 8 3 8 - * 1 < < k d s k k d d e < & = . - 3 3 0 D / ^ ` } :...' ~ ^ ^ D 8 1 3 1 2 w 2 - ",
"= & 2 3 5 d h k P ! E ) C.A.Z.Z.&.&.*.@.y 8 3 3 & 3 < < n k h c g a 5 6 < X = . = - 3 l *.7.0.0.` } ~ ! B l 0 0 7 3 - 3 3 - 2 - ",
"= O = 2 7 7 h h ! E P ) N.A.Z.Z.<.3.4.%.l 1 1 3 O < o < a k s s d 4 5 6 < o = . e 7 3 N :.7.3.3.` } ` ^ l 9 7 8 3 - - 3 q 3 2 w ",
"$ = = 2 7 d g z U P ! ` N.D.D.A.1.>.4.%.0 1 1 7 4 1 < < k c f f c s g 5 > > > o 1 5 < k %.0.4.2.` %.%.D m y w r - 3 3 = 3 3 2 3 ",
"$ $ = = 7 7 g s U P E ( t.p.a.w.| | o./ h 5 5 7 7 e 7 k ^ _ ( ( U v N c 4 < 4 > b N k U :.1.1.1.B S S m y 3 3 r - w 2 2 7 7 3 6 ",
"  $ X = 3 7 d c _ L ( P ~ Z Q Z [ [ | ) c d n 7 n k k N -.1.1.1._ ! _ Y g s a a R -.-._ ` ` ) ~ k 0 0 y 2 - - w w ; - 2 7 3 7 7 ",
"    $ = 3 d d c T L ( ! ' ~ &.) | ] [ ( x k N d d k k c ;.8.o.1.( ! _ U f f g f U R R _ } } ..X.k 0 8 3 w w w q - = - 3 7 7 5 9 ",
"    # & 7 d k g _ L ) ! ) ! / Q | [ [ ( v c k 5 n k k P ;.8.o.1.( ! ( T f a f a { { { _ } ` ) ~ l y 8 3 r r q ; = q 2 3 3 9 5 7 "
};
